<?xml version="1.0" standalone="no"?>
<svg xmlns:xlink="http://www.w3.org/1999/xlink" id="wave" style="transform:rotate(0deg); transition: 0.3s" viewBox="0 0 1440 420" version="1.1" xmlns="http://www.w3.org/2000/svg"><defs><linearGradient id="sw-gradient-0" x1="0" x2="0" y1="1" y2="0"><stop stop-color="rgba(230, 16, 91, 1)" offset="0%"/><stop stop-color="rgba(230, 16, 91, 1)" offset="100%"/></linearGradient></defs><path style="transform:translate(0, 0px); opacity:1" fill="url(#sw-gradient-0)" d="M0,126L288,378L576,294L864,336L1152,210L1440,168L1728,378L2016,294L2304,294L2592,336L2880,378L3168,378L3456,252L3744,126L4032,126L4320,84L4608,336L4896,168L5184,378L5472,168L5760,42L6048,252L6336,210L6624,210L6912,84L6912,420L6624,420L6336,420L6048,420L5760,420L5472,420L5184,420L4896,420L4608,420L4320,420L4032,420L3744,420L3456,420L3168,420L2880,420L2592,420L2304,420L2016,420L1728,420L1440,420L1152,420L864,420L576,420L288,420L0,420Z"/></svg>