<?xml version="1.0" standalone="no"?>
<svg xmlns:xlink="http://www.w3.org/1999/xlink" id="wave" style="transform:rotate(0deg); transition: 0.3s" viewBox="0 0 1440 130" version="1.1" xmlns="http://www.w3.org/2000/svg"><defs><linearGradient id="sw-gradient-0" x1="0" x2="0" y1="1" y2="0"><stop stop-color="rgba(230, 16, 91, 1)" offset="0%"/><stop stop-color="rgba(230, 16, 91, 1)" offset="100%"/></linearGradient></defs><path style="transform:translate(0, 0px); opacity:1" fill="url(#sw-gradient-0)" d="M0,0L288,26L576,78L864,26L1152,65L1440,104L1728,65L2016,65L2304,78L2592,26L2880,117L3168,91L3456,65L3744,26L4032,26L4320,52L4608,13L4896,78L5184,26L5472,65L5760,0L6048,0L6336,65L6624,104L6912,78L6912,130L6624,130L6336,130L6048,130L5760,130L5472,130L5184,130L4896,130L4608,130L4320,130L4032,130L3744,130L3456,130L3168,130L2880,130L2592,130L2304,130L2016,130L1728,130L1440,130L1152,130L864,130L576,130L288,130L0,130Z"/></svg>